<svg width="666" height="300" viewBox="0 0 666 300" fill="none" xmlns="http://www.w3.org/2000/svg">
<path fill-rule="evenodd" clip-rule="evenodd" d="M174.591 222.144H144.643V222.144H68.7326V218.945C68.7326 201.477 76.6443 184.949 90.2501 173.994L91.013 173.379L115.173 153.926L115.172 153.924L139.331 134.472L140.094 133.858C156.076 120.989 165.37 101.573 165.37 81.0534V77.8334C165.37 72.2767 160.866 67.772 155.309 67.772H79.3773V67.7733H44.2347H21.0159C9.91398 67.7733 0.914062 76.7732 0.914062 87.8751V279.898C0.914062 291 9.91398 300 21.0159 300H145.268C156.369 300 165.369 291 165.369 279.898V246.639C165.369 243.855 163.112 241.598 160.328 241.598H59.2954C53.7618 241.598 49.2759 237.112 49.2759 231.579V227.186C49.2759 203.83 58.6028 181.442 75.1845 164.994L86.6919 153.579C87.6461 152.633 88.1829 151.344 88.1829 150C88.1829 148.656 87.6461 147.368 86.6919 146.421L75.1845 135.007C59.7998 119.746 50.6603 99.3717 49.4209 77.8556H99.1438C99.1814 77.8556 99.2189 77.8552 99.2562 77.8543H155.288V81.0534C155.288 98.5215 147.376 115.05 133.77 126.005L133.007 126.619L108.847 146.072L108.849 146.074L84.6898 165.526L83.9269 166.141C67.9442 179.01 58.6503 198.425 58.6503 218.945V222.165C58.6503 227.722 63.1549 232.226 68.7117 232.226H124.808C124.828 232.227 124.848 232.227 124.868 232.227H179.778H202.996C214.098 232.227 223.098 223.227 223.098 212.125V20.1019C223.098 8.99991 214.098 0 202.996 0H78.7447C67.6428 0 58.6429 8.99989 58.6429 20.1019V53.3607C58.6429 56.1449 60.8998 58.4019 63.684 58.4019H164.717C170.25 58.4019 174.736 62.8878 174.736 68.4214V72.814C174.736 96.1698 165.409 118.558 148.828 135.006L137.32 146.421C136.366 147.367 135.829 148.656 135.829 150C135.829 151.344 136.366 152.632 137.32 153.579L148.828 164.993C164.212 180.254 173.352 200.628 174.591 222.144ZM103.469 143.128C101.723 145.296 98.5495 145.639 96.3809 143.892L83.9194 133.859C70.4032 122.976 61.6709 107.411 59.2974 90.4561C58.9114 87.6989 60.8337 85.1508 63.591 84.7648C66.3482 84.3788 68.8963 86.3011 69.2824 89.0583C69.3077 89.2396 69.334 89.4207 69.361 89.6016H130.068C131.144 86.7583 133.892 84.7367 137.113 84.7367C141.272 84.7367 144.643 88.1081 144.643 92.267C144.643 96.4259 141.272 99.7973 137.113 99.7973C134.593 99.7973 132.362 98.5597 130.995 96.6592H70.8744C71.8076 99.9811 73.0353 103.207 74.5394 106.299H120.425C121.692 103.924 124.194 102.307 127.074 102.307C131.233 102.307 134.604 105.679 134.604 109.838C134.604 113.997 131.233 117.368 127.074 117.368C123.795 117.368 121.006 115.273 119.972 112.349H77.9462C80.4394 116.212 83.403 119.791 86.7938 122.996L107.725 122.996C108.331 119.444 111.424 116.741 115.148 116.741C119.307 116.741 122.678 120.112 122.678 124.271C122.678 128.43 119.307 131.802 115.148 131.802C112.361 131.802 109.927 130.288 108.625 128.037H92.7656L102.704 136.039C104.873 137.786 105.215 140.959 103.469 143.128ZM93.0263 203.34H153.138C152.205 200.019 150.977 196.793 149.473 193.701H103.599C102.333 196.076 99.8304 197.692 96.9507 197.692C92.7918 197.692 89.4203 194.321 89.4203 190.162C89.4203 186.003 92.7918 182.632 96.9507 182.632C100.229 182.632 103.019 184.727 104.052 187.652H146.066C143.573 183.788 140.609 180.208 137.218 177.003H116.299C115.694 180.555 112.601 183.259 108.877 183.259C104.718 183.259 101.346 179.888 101.346 175.729C101.346 171.57 104.718 168.199 108.877 168.199C111.663 168.199 114.096 169.712 115.399 171.962H131.246L121.308 163.961C119.14 162.214 118.797 159.041 120.543 156.872C122.289 154.704 125.463 154.361 127.631 156.108L140.093 166.141C153.609 177.024 162.341 192.589 164.715 209.544C165.101 212.301 163.179 214.849 160.421 215.235C157.664 215.621 155.116 213.699 154.73 210.942C154.704 210.76 154.678 210.579 154.651 210.398H93.9522C92.8754 213.24 90.1276 215.261 86.9077 215.261C82.7488 215.261 79.3773 211.89 79.3773 207.731C79.3773 203.572 82.7488 200.201 86.9077 200.201C89.4282 200.201 91.6594 201.439 93.0263 203.34Z" fill="#004BFF"/>
<path fill-rule="evenodd" clip-rule="evenodd" d="M566.362 136.409C569.212 135.261 571.815 133.577 574.03 131.448C579.771 125.272 582.913 117.123 582.805 108.691C582.952 105.298 582.419 101.91 581.236 98.727C580.053 95.5438 578.244 92.6299 575.916 90.1573C573.534 87.5874 570.545 85.656 567.223 84.5398L562.549 83.1457C565.133 82.0684 567.583 80.6922 569.847 79.0453C572.947 76.4822 575.445 73.2699 577.167 69.6352C578.889 66.0005 579.791 62.0322 579.811 58.0105C579.859 53.7482 578.904 49.5344 577.023 45.7093C575.842 43.3497 574.353 41.1574 572.595 39.1898C567.294 34.4301 560.646 31.4353 553.569 30.62C550.474 30.1704 547.348 29.9647 544.22 30.0049H478.942V140.018H546.27C553.155 140.366 560.029 139.132 566.362 136.409ZM540.759 95.8855C542.695 96.7532 544.38 98.0976 545.655 99.7932C546.701 101.598 547.24 103.653 547.213 105.739C547.236 107.96 546.578 110.135 545.327 111.971C544.189 113.501 542.67 114.706 540.923 115.469C539.175 116.231 537.259 116.524 535.363 116.318H513.549V94.8317H534.584C536.698 94.6553 538.823 95.0178 540.759 95.8855ZM538.796 53.838C540.414 54.5569 541.816 55.6839 542.867 57.1084C543.815 58.6771 544.299 60.483 544.261 62.3159C544.353 64.1124 543.911 65.896 542.99 67.4413C541.838 68.9852 540.284 70.1837 538.499 70.9066C536.713 71.6296 534.763 71.8492 532.862 71.5417H513.713V53.008H533.641C535.402 52.8332 537.179 53.1192 538.796 53.838ZM438.03 140.017L433.233 124.559H394.894L390.056 140.017H352.66L394.73 30.0044H434.299L475.303 140.017H438.03ZM414.371 61.2902L402.357 100.121H426.057L414.371 61.2902ZM271.098 140.019V30.0066H305.828V112.26H348.39V140.019H271.098ZM271.098 270V159.946H305.828V242.24H348.39V270H271.098ZM355.594 159.946V270H447.32V245.931H390.283V224.117H439.201V200.294H390.447V183.892H442.686V159.946H355.594ZM524.959 270L488.301 206.075L488.63 270H456.196V159.946H493.099L530.372 223.994L529.88 159.946H562.437V270H524.959ZM617.681 269.875C622.555 269.883 639.27 269.91 652.171 260.403C656.4 257.333 659.826 253.289 662.16 248.614C664.494 243.939 665.667 238.77 665.58 233.546C665.58 213.044 649.752 207.385 643.355 205.376C635.726 202.972 627.908 201.216 619.983 200.128C616.023 199.616 612.157 198.539 608.502 196.929C607.735 196.414 607.098 195.727 606.642 194.923C606.187 194.119 605.925 193.219 605.878 192.296C605.996 191.109 606.443 189.977 607.167 189.029C607.891 188.08 608.864 187.352 609.978 186.924C612.446 186.019 615.059 185.574 617.687 185.612C625.273 185.612 635.688 187.211 641.674 192.706C642.771 193.711 643.747 194.84 644.586 196.068L665.088 179.052C662.696 176.456 660.075 174.082 657.256 171.958C642.576 161.215 624.125 160.928 618.917 160.928C618.857 160.928 618.792 160.928 618.722 160.928C614.158 160.923 587.636 160.892 577.339 179.79C574.776 184.563 573.477 189.913 573.567 195.33C573.447 199.23 574.177 203.11 575.706 206.7C577.236 210.29 579.528 213.504 582.424 216.119C587.385 220.465 594.93 223.951 609.035 226.698C612.151 227.341 614.962 227.869 617.458 228.338C622.289 229.246 625.942 229.933 628.348 230.798C629.398 231.019 630.385 231.473 631.237 232.126C632.088 232.779 632.782 233.614 633.268 234.571C633.694 235.326 633.947 236.166 634.007 237.031C634.007 242.115 627.61 244.863 618.466 244.863C609.997 245.012 601.699 242.471 594.766 237.605C592.78 235.825 591.116 233.717 589.845 231.372L564.997 247.2C568.066 251.396 571.742 255.114 575.904 258.23C588.082 267.374 602.352 269.875 617.318 269.875C617.43 269.875 617.552 269.875 617.681 269.875Z" fill="black"/>
</svg>
